<svg xmlns="http://www.w3.org/2000/svg" viewBox="0 0 750.24 312.42"><defs><style>.cls-1{fill:#fff;}</style></defs><g id="Camada_2" data-name="Camada 2"><g id="Camada_1-2" data-name="Camada 1"><path class="cls-1" d="M410.62.79h32.09a13.89,13.89,0,0,1-.66,3.49c-4,8-3.89,16.19-2.89,24.86,5.24,45.45,10,91,15.29,136.41.43,3.79,2.88,7.35,4.49,11.24,5.15-3.59,7-7.49,7-13.19-.1-46.36.25-92.72.1-139.07,0-5.38-2.1-10.78-3.52-16.1-.63-2.36-2-4.53-3.49-7.85,8.24,0,15.71-.25,23.14.24,1.27.08,2.91,3.13,3.42,5.07,7.09,27.18,14,54.41,21,81.63A13.51,13.51,0,0,0,509,92.9c.09-1.78.26-3.56.26-5.33,0-20.56-.18-41.13.14-61.68.1-6.82-.88-13-4.5-18.83A50,50,0,0,1,502.14.92h33c-.22.94-.18,1.61-.49,2-7.83,8.82-8,19.4-8,30.46.13,56.25-.17,112.5-.32,168.75a10.88,10.88,0,0,1-1.19,5.87q-22-71.11-43.93-142.22L480,65.8v4.74c0,30.65.15,61.3-.15,91.94-.07,7.22,1,13.79,4.68,20,1.07,1.79,1.8,3.77,3,6.43l-57.49-11.08c0-.35-.15-.64-.06-.72,8-7.63,6.29-17,4.81-26.35-1-6.1-1.44-12.27-2.2-18.88-6.25-.34-12.19-.84-18.12-.83-1,0-2.73,2-3,3.27-1.68,9.15-3.31,18.33-4.34,27.57-.26,2.32,1.6,4.94,2.68,7.33.94,2.06,2.17,4,3.7,6.76l-57.7-2.86c0-.53-.23-1.08-.07-1.22,6.69-5.55,7-12.92,7-20.94-.26-37.24,0-74.49-.09-111.73,0-12.87,2.19-26.14-7.78-38.22h34a6,6,0,0,1-.38,2.19c-6.12,9.41-6.38,19.86-6.31,30.68.26,41.31,0,82.63.18,123.94,0,3.77,1.63,7.53,2.73,12.27,5.28-4.46,8.47-7.88,9.3-13.72,6.52-45.67,13.58-91.26,19.83-137C415.09,13.67,412.05,7.47,410.62.79ZM423.93,54l-1.08-.09c-2.83,20.21-5.67,40.42-8.55,61H431C428.63,94.36,426.28,74.2,423.93,54Z"/><path class="cls-1" d="M27.67,33c-8,93.54-7.74,186.14,25.52,275.76l-1.36.61c-1.38-1.61-2.84-3.15-4.11-4.83-22-29.05-34.36-62.23-41.5-97.59C-2.56,163.49-1,119.78,4.45,76.11,6.75,57.66,10.26,39.36,13,21a18.91,18.91,0,0,0-1-8.3C10.65,8.71,8.71,5,6.84.67H45.59c2,33.92,4,67.51,6,101.09h.84c4-33.63,8-67.25,12-101.14h37.39a16.61,16.61,0,0,1-1.29,3.88c-5.22,8-6,16.69-6,26,.26,51.79,0,103.58.17,155.36.06,14.52-3.19,29.67,7.46,42.94l-36,16.43c2.46-7.89,4.63-14.62,6.63-21.39A28.84,28.84,0,0,0,74.37,216q.31-83.49.39-167A11.34,11.34,0,0,0,74,44.34Q64.14,145.2,54.32,246.05l-1.4,0Q40.29,139.55,27.67,33Z"/><path class="cls-1" d="M174.26.32c12.14,0,23.21-.61,34.19.16,11.6.82,20.76,6.86,25.73,17.49,9,19.22,10,39.12.94,58.45-3.31,7.06-9.71,12.67-15,19.26,15.82,9.06,14.81,26.21,16.17,42.25.89,10.43.62,21,1.53,31.38.34,3.92,2.52,7.67,4.66,11.38,4.9-6,8.89-11.27,8.82-19.27-.34-40.54-.09-81.09-.09-121.63,0-13.08,2-26.5-7.38-38.87h34.3a11.7,11.7,0,0,1-1.06,2.88c-6.59,8.77-6.8,18.83-6.73,29.27.27,39.57.13,79.15,0,118.72,0,9.49-1.24,19.16,7.36,27.12-2.45.73-3.8,1.29-5.2,1.53-12.41,2.2-24.82,4.33-37.23,6.5-8.17,1.44-13.76-1.54-16.09-9.51a70.79,70.79,0,0,1-2.34-14.88c-1-13.92-1.33-27.9-2.55-41.8-.91-10.44-4.47-13.73-13.52-14.25a15.45,15.45,0,0,0-.49,2.7c0,22.89-.35,45.79.19,68.67.12,5.1,3.26,10.14,5.3,16l-32,8.95c.55-2.07.66-3.56,1.3-4.76,4.87-9.19,5.68-19,5.62-29.23-.28-47.33-.18-94.67,0-142,0-7.13-.63-13.85-4.07-20.18A61.88,61.88,0,0,1,174.26.32Zm26.66,17.1V86.66c6.74.33,11-3.12,13.36-8.16,8.24-17.73,8.32-36,1.28-54C213,18,208.53,16.35,200.92,17.42Z"/><path class="cls-1" d="M645.86,310.68c8.25-12.19,16.3-24.52,24.82-36.52,4.28-6,7.14-12.29,7.71-19.67.81-10.44,2.05-20.84,2.61-31.29.43-8.11.08-16.26.08-25.25l-21.54,9.79c-3.34-6.23-7.06-12.1-9.77-18.4-9.11-21.14-12.21-43.57-13.19-66.35-1.44-33.44,1.4-66.3,14.65-97.51,3.07-7.24,7.33-14,11.3-21.43,2.3,1.25,3.81,2,5.19,2.86C677.81,13.45,687.78,20.18,698,26.5c3.7,2.3,5.53,5.09,5.71,9.33.46,11,1.63,22.08,1.46,33.1-.8,50.61-1.68,101.22-3.15,151.81-.45,15.46-2.86,30.87-4.33,46.3-.68,7.17-3.71,13-9.65,17.15-13.6,9.45-27.28,18.82-40.92,28.23Zm22.79-130.54c2.87-1.07,5.3-2.38,7.88-2.87,6-1.13,7.1-4.59,7.08-10.29-.13-36.4.13-72.81.32-109.22.07-12.19.15-12.19-11.29-16-.32-.11-.74.08-1.11.13C655.61,79.93,655.8,139.7,668.65,180.14Z"/><path class="cls-1" d="M621.6,252.87c-175.74-55.81-351.34-55.58-527.22-1.36,78.85-40.13,163-58,251-59.56C442.34,190.28,535,208.68,621.6,252.87Z"/><path class="cls-1" d="M155.9,127q-4-7.17-8-14.36c-4.71-8.44-4.71-8.44-14.51-6.26v92.26c9.39-.21,12.24-2.25,15.06-10.65q6.85-20.37,13.78-40.73a5.91,5.91,0,0,1,2.3-3.33c0,19.7,0,39.39-.14,59.09,0,1.17-1.73,2.91-3,3.4C143.21,213.33,125,220,105.63,227.23c2-6.36,3.9-11.73,5.31-17.23a52.29,52.29,0,0,0,2-12.48q.33-88.71.33-177.43a28.21,28.21,0,0,0-1.39-7.9C110.82,8.54,109.34,5,107.79.79h56.69V54.51l-.85.42q-2.13-5.09-4.25-10.19c-3.12-7.51-6.61-14.9-9.22-22.59-1.68-5-4.33-6.75-9.33-6a52.58,52.58,0,0,1-7.25.05v72.5c6.2.71,10.76-.54,13.39-7a75.33,75.33,0,0,1,9.81-16.48v61.46Z"/><path class="cls-1" d="M283.06,0c10.94.48,22,.09,32.79,1.69,9.67,1.44,16.27,8.56,21.3,16.75,7.66,12.48,11.05,26.37,12.8,40.69,3,24.74,3.58,49.49-1.67,74A93.41,93.41,0,0,1,342,151.78c-5.79,12.85-15.71,21-29.76,23.43-10.09,1.71-20.29,2.78-30.92,4.21.45-1.32.5-2.2,1-2.7,7-7.65,7.2-16.85,7.13-26.55-.29-37.59-.09-75.19-.09-112.79,0-12.32,1.71-25-7.41-35.64Zm25.79,16.38V161.75a20.18,20.18,0,0,0,2.63-.35c10.92-2.9,14.51-11.48,16-21.32,4.55-30.43,4.36-61,1.54-91.55a92.74,92.74,0,0,0-4.87-20.8C321.87,21,316.49,17.35,308.85,16.38Z"/><path class="cls-1" d="M631.22,9.19,615.61,38.63l-23.53-12.8L580.44,40.25c5.88,5.56,11.73,11.16,17.65,16.68C613.48,71.3,620.63,89,619.94,110c-.54,16.66,0,33.41-1.43,50-2.9,32.65-18.72,48.05-51.38,51.77a41.82,41.82,0,0,1-11.24,0c4.18-1.63,8.3-3.45,12.55-4.86,14.31-4.76,22.28-15.09,25.29-29.35,5.08-24.13,5.39-48.52,2.34-72.91a21.23,21.23,0,0,0-4.52-10.49c-9.8-11.74-20-23.17-30.23-34.53-3.22-3.58-7.06-6.6-11-10.18,10.13-12.59,20.43-24,29.06-36.52,6.91-10,13.72-13.37,25.63-8.45C613,7.79,622.21,7.72,631.22,9.19Z"/><path class="cls-1" d="M734.86,35.53a15.39,15.39,0,1,1,15.38-15.39A15.41,15.41,0,0,1,734.86,35.53Zm0-28.77a13.39,13.39,0,1,0,13.38,13.38A13.4,13.4,0,0,0,734.86,6.76Z"/><path class="cls-1" d="M729.13,13.14h6.46A6,6,0,0,1,740,14.62a4.2,4.2,0,0,1,1.21,3.18v0a4.32,4.32,0,0,1-2.8,4.2l3.25,4.76h-4.37l-2.75-4.14h-1.66V26.8h-3.78Zm6.28,6.56c1.29,0,2-.63,2-1.62v0c0-1.07-.78-1.62-2.05-1.62h-2.48V19.7Z"/><path class="cls-1" d="M277.36,228.87c5.43-.52,8.15-.75,13.59-1.17L292.28,245c6.83-.53,10.25-.76,17.08-1.14l-.95-17.27c5.44-.3,8.16-.43,13.61-.63l1.77,46.17c-5.13.2-7.7.32-12.83.6-.39-7-.58-10.52-1-17.53-6.74.37-10.1.6-16.83,1.12l1.35,17.5c-5.12.4-7.68.62-12.8,1.1Z"/><path class="cls-1" d="M330.82,251.57c-.3-10.37-.44-15.56-.73-25.93,5.53-.16,8.3-.21,13.83-.27.11,10.27.17,15.4.28,25.68.07,6.66,3.53,9.78,8.76,9.79s8.7-3,8.77-9.46c.12-10.4.19-15.6.31-26,5.53.06,8.3.12,13.83.28-.3,10.24-.45,15.36-.74,25.6.72,13.26-10.16,21.08-22.31,21.13C340.05,272.44,331.26,264.59,330.82,251.57Z"/><path class="cls-1" d="M383.94,225.94c10.08.39,15.12.67,25.18,1.38,6.17.44,10.4,2.26,13,5.21a9.78,9.78,0,0,1,2.45,7.71v.13c-.49,5.32-3.93,8.18-8.29,9.61,5.63,2.32,9,5.83,8.4,12.08v.13c-.75,7.89-7.66,12-18.69,11.24-9.54-.68-14.31-.94-23.86-1.32Q383,249,383.94,225.94Zm20.59,19.53c4,.27,6.4-.87,6.6-3.57v-.13c.19-2.51-1.78-4.12-5.79-4.39-3.49-.23-5.23-.34-8.72-.53-.19,3.24-.28,4.86-.46,8.11C399.52,245.14,401.19,245.24,404.53,245.47Zm.71,17.58c3.95.27,6.35-1.06,6.55-3.76v-.13c.2-2.5-1.7-4.31-6.1-4.61-4-.28-6-.41-10-.63l-.47,8.5C399.22,262.65,401.23,262.77,405.24,263.05Z"/></g></g></svg>